<?xml version="1.0" standalone="no"?>
<!DOCTYPE svg PUBLIC "-//W3C//DTD SVG 20010904//EN"
 "http://www.w3.org/TR/2001/REC-SVG-20010904/DTD/svg10.dtd">
<svg version="1.0" xmlns="http://www.w3.org/2000/svg"
 width="694.000000pt" height="694.000000pt" viewBox="0 0 694.000000 694.000000"
 preserveAspectRatio="xMidYMid meet">
<metadata>
Created by potrace 1.14, written by Peter Selinger 2001-2017
</metadata>
<g transform="translate(0.000000,694.000000) scale(0.100000,-0.100000)"
fill="#000000" stroke="none">
<path d="M3389 5119 c-36 -4 -81 -11 -100 -17 -18 -5 -171 -51 -339 -102 -168
-51 -325 -98 -350 -105 -40 -11 -250 -74 -465 -140 -44 -13 -268 -81 -498
-150 -230 -69 -435 -134 -455 -144 -53 -28 -97 -77 -129 -146 l-27 -60 0 -780
c0 -839 -2 -810 54 -898 42 -66 97 -101 213 -137 56 -17 129 -39 162 -49 33
-11 98 -30 145 -45 156 -47 422 -127 705 -213 154 -47 296 -89 315 -95 19 -6
184 -55 365 -109 350 -106 367 -110 458 -113 99 -4 160 10 492 109 176 53 532
159 790 236 259 77 508 151 555 165 47 14 130 39 185 55 287 86 319 99 360
137 57 54 84 95 98 151 9 37 12 231 11 817 0 704 -2 772 -18 809 -44 103 -108
160 -217 195 -94 29 -399 121 -434 130 -16 4 -57 15 -90 25 -33 10 -60 17 -60
16 0 -1 -13 3 -30 9 -29 11 -1025 308 -1055 315 -8 2 -44 12 -80 23 -360 112
-423 125 -561 111z m187 -192 c6 -3 21 -8 35 -11 13 -3 60 -16 104 -30 44 -13
186 -55 315 -94 129 -39 449 -134 710 -212 261 -78 482 -143 490 -145 8 -2
114 -34 235 -70 230 -70 264 -87 282 -144 5 -14 9 -357 8 -762 0 -682 -2 -737
-18 -762 -9 -15 -28 -34 -40 -42 -19 -12 -291 -98 -497 -157 -19 -5 -215 -64
-435 -129 -220 -66 -470 -140 -555 -165 -85 -25 -166 -50 -180 -54 -14 -5
-126 -39 -250 -76 -318 -96 -313 -96 -695 20 -159 49 -310 94 -335 102 -79 23
-265 79 -645 194 -203 62 -472 143 -596 180 -125 38 -236 74 -248 82 -12 7
-29 29 -39 48 -16 32 -17 93 -16 775 0 679 2 743 17 772 20 38 50 55 143 82
38 10 227 67 419 126 193 58 357 108 365 110 17 4 1193 359 1225 370 17 5 191
-1 201 -8z"/>
<path d="M1808 4044 c-145 -34 -237 -113 -263 -227 -27 -118 3 -237 77 -302
57 -49 128 -80 278 -120 198 -53 250 -87 250 -167 0 -94 -71 -143 -205 -141
-96 1 -166 25 -263 90 -37 24 -70 45 -73 46 -11 3 -119 -135 -113 -144 8 -13
112 -83 161 -107 110 -56 275 -78 403 -54 93 17 159 52 215 114 57 63 75 118
72 221 -5 177 -94 253 -392 332 -175 47 -225 85 -220 167 4 72 56 115 155 127
l45 6 0 85 0 85 -35 1 c-19 1 -61 -4 -92 -12z"/>
<path d="M2017 4052 c-2 -4 -3 -43 -3 -87 l1 -80 101 -1 c56 -1 113 -4 127 -8
42 -10 80 -97 232 -536 81 -236 116 -312 165 -361 32 -32 62 -51 91 -59 43
-12 832 -21 847 -10 10 7 9 156 -1 166 -4 4 -186 8 -403 9 l-396 1 -18 24 -19
25 312 5 c347 6 342 5 412 77 50 51 110 180 141 299 31 122 33 168 7 203 -41
55 -35 55 -588 56 l-510 0 -41 85 c-44 92 -96 152 -153 177 -38 17 -296 30
-304 15z m734 -462 c22 -12 27 -72 7 -87 -27 -21 -59 -22 -79 -2 -50 50 8 123
72 89z m225 2 c35 -23 34 -80 -2 -100 -20 -11 -63 1 -76 21 -30 47 32 110 78
79z m243 -11 c24 -24 17 -67 -16 -88 -22 -15 -26 -15 -51 4 -33 25 -38 47 -18
78 20 30 58 33 85 6z m216 13 c9 -4 21 -18 26 -32 11 -30 -8 -66 -40 -75 -30
-8 -70 27 -67 58 6 46 37 66 81 49z m-565 -184 c35 -35 19 -84 -30 -94 -45
-10 -73 31 -56 81 6 19 15 24 59 32 4 0 16 -8 27 -19z m230 0 c11 -11 20 -29
20 -40 0 -21 -33 -60 -51 -60 -21 0 -50 22 -58 43 -10 26 5 64 28 70 32 9 41
7 61 -13z m228 4 c24 -17 30 -65 10 -82 -31 -24 -57 -23 -82 1 -28 28 -26 59
7 82 27 19 37 19 65 -1z"/>
<path d="M3965 3761 c-87 -26 -123 -48 -186 -112 -55 -55 -101 -135 -114 -195
-11 -51 -13 -164 -4 -207 27 -124 124 -242 245 -299 87 -41 220 -50 320 -23
107 29 204 103 265 205 47 77 63 230 35 335 -35 131 -140 241 -276 291 -67 24
-211 26 -285 5z m240 -165 c91 -39 146 -121 153 -232 12 -183 -112 -307 -288
-291 -147 13 -242 130 -234 286 6 120 76 215 182 247 50 15 138 10 187 -10z"/>
<path d="M4980 3764 c-56 -20 -95 -47 -140 -97 l-35 -39 0 68 0 69 -90 0 -90
0 0 -575 0 -575 90 0 90 0 0 210 0 211 61 -47 c75 -57 142 -80 227 -80 173 0
329 123 381 299 23 80 17 240 -13 314 -45 114 -153 212 -268 242 -70 18 -161
18 -213 0z m185 -172 c50 -25 86 -64 117 -122 19 -37 23 -60 23 -130 0 -95
-18 -141 -76 -198 -97 -94 -255 -95 -347 -1 -53 55 -75 110 -75 198 -1 122 48
210 148 261 51 26 151 23 210 -8z"/>
<path d="M2839 2834 c-19 -8 -42 -27 -51 -42 -32 -54 -7 -145 48 -170 11 -5
39 -9 62 -8 120 6 148 175 37 222 -42 17 -50 17 -96 -2z"/>
<path d="M3195 2836 c-49 -22 -68 -50 -69 -106 -1 -43 3 -54 30 -80 82 -83
216 -18 198 97 -12 77 -89 120 -159 89z"/>
</g>
</svg>
