<?xml version="1.0" standalone="no"?>
<!DOCTYPE svg PUBLIC "-//W3C//DTD SVG 20010904//EN"
 "http://www.w3.org/TR/2001/REC-SVG-20010904/DTD/svg10.dtd">
<svg version="1.0" xmlns="http://www.w3.org/2000/svg"
 width="256.000000pt" height="256.000000pt" viewBox="0 0 256.000000 256.000000"
 preserveAspectRatio="xMidYMid meet">
<metadata>
Created by potrace 1.14, written by Peter Selinger 2001-2017
</metadata>
<g transform="translate(0.000000,256.000000) scale(0.100000,-0.100000)"
fill="#000000" stroke="none">
<path d="M1184 2443 c-16 -8 -35 -22 -44 -31 -8 -9 -58 -64 -110 -122 -52 -58
-124 -138 -160 -179 -36 -40 -76 -85 -90 -100 -14 -15 -54 -60 -90 -100 -36
-40 -81 -90 -100 -111 -19 -21 -62 -68 -95 -106 -33 -37 -69 -78 -80 -90 -11
-12 -51 -57 -90 -100 -38 -43 -77 -85 -85 -94 -8 -8 -44 -50 -80 -93 -158
-189 -199 -467 -97 -661 29 -55 95 -130 142 -162 22 -14 140 -60 190 -74 17
-4 197 -57 400 -118 697 -208 706 -210 741 -181 8 7 70 78 137 158 67 80 124
148 127 151 3 3 24 28 45 55 22 28 45 55 51 60 6 6 42 48 80 95 105 129 101
124 220 266 23 27 110 132 193 234 l153 185 -8 65 c-9 82 -9 130 1 206 7 55 5
62 -16 88 -33 37 -94 46 -130 17 -39 -30 -60 -110 -60 -224 l0 -97 -62 -77
c-34 -43 -64 -80 -67 -83 -3 -3 -68 -81 -145 -175 -77 -93 -142 -172 -145
-175 -3 -3 -48 -57 -100 -120 -51 -63 -96 -117 -100 -120 -3 -3 -25 -30 -50
-60 -25 -30 -49 -60 -55 -66 -5 -6 -43 -52 -84 -102 -41 -49 -79 -88 -85 -86
-20 7 -646 193 -671 199 -5 1 -17 5 -25 8 -8 3 -94 29 -190 58 -96 28 -194 60
-218 72 -80 37 -123 119 -125 236 -2 101 21 150 77 169 42 14 78 8 241 -38 39
-11 102 -28 140 -39 39 -10 214 -60 390 -110 358 -101 361 -102 392 -88 13 6
98 96 189 201 92 105 193 220 224 256 32 36 92 106 134 155 43 50 87 101 99
115 13 14 49 57 82 95 33 39 62 72 65 75 3 3 32 37 65 75 32 39 66 78 75 87 8
9 20 23 26 30 5 7 35 42 65 78 30 36 62 76 71 89 25 36 8 98 -35 125 -17 11
-382 99 -544 132 -12 2 -172 37 -355 78 -404 90 -390 87 -424 69z m168 -413
c73 -17 144 -33 158 -36 14 -3 34 -8 45 -11 11 -4 25 -8 30 -9 45 -8 356 -87
377 -95 43 -17 42 -36 -8 -99 -54 -69 -86 -85 -151 -76 -43 6 -342 73 -423 95
-19 6 -75 20 -125 31 -49 12 -101 25 -115 30 -14 4 -44 13 -67 19 -35 10 -43
16 -43 36 0 24 32 69 85 117 38 36 69 36 237 -2z"/>
</g>
</svg>
