<?xml version="1.0" standalone="no"?>
<!DOCTYPE svg PUBLIC "-//W3C//DTD SVG 20010904//EN"
 "http://www.w3.org/TR/2001/REC-SVG-20010904/DTD/svg10.dtd">
<svg version="1.0" xmlns="http://www.w3.org/2000/svg"
 width="256.000000pt" height="256.000000pt" viewBox="0 0 256.000000 256.000000"
 preserveAspectRatio="xMidYMid meet">
<metadata>
Created by potrace 1.14, written by Peter Selinger 2001-2017
</metadata>
<g transform="translate(0.000000,256.000000) scale(0.100000,-0.100000)"
fill="#000000" stroke="none">
<path d="M325 2315 c-22 -6 -44 -12 -48 -12 -19 -2 -74 -29 -96 -48 -80 -68
-116 -131 -123 -222 -1 -7 -5 -13 -10 -13 -4 0 -8 -7 -8 -15 0 -8 4 -15 8 -15
4 0 8 -8 9 -17 1 -10 4 -31 8 -48 4 -16 7 -36 7 -42 1 -7 5 -13 10 -13 5 0 6
-4 3 -10 -3 -5 -2 -10 4 -10 10 0 27 -39 23 -53 -1 -5 1 -6 6 -3 11 7 42 -30
34 -40 -4 -4 -2 -4 5 -1 6 4 18 2 25 -5 21 -20 56 -38 73 -38 8 0 15 -4 15
-10 0 -5 10 -14 23 -20 21 -11 21 -10 3 4 -17 14 -17 16 -3 16 9 0 21 -8 26
-17 6 -10 11 -13 11 -6 0 13 40 14 40 0 0 -4 5 -5 12 -1 8 5 9 2 4 -11 -5 -15
-4 -16 9 -5 9 7 15 9 14 4 -1 -5 3 -29 10 -54 8 -25 14 -56 16 -70 1 -14 9
-42 18 -62 8 -20 17 -49 18 -65 2 -15 6 -32 10 -38 4 -5 10 -26 13 -46 3 -20
10 -49 16 -64 6 -16 9 -34 6 -42 -3 -7 -2 -13 2 -13 7 0 25 -55 36 -112 4 -16
14 -44 33 -86 8 -18 11 -37 7 -44 -4 -6 -3 -8 4 -4 6 3 16 -7 23 -23 7 -16 17
-27 21 -25 4 3 8 -2 8 -10 0 -9 5 -16 11 -16 5 0 7 -5 4 -10 -4 -6 -3 -9 2 -8
4 1 23 -6 41 -16 23 -12 31 -21 24 -29 -19 -25 -54 -197 -40 -197 5 0 6 -4 3
-10 -3 -5 -1 -19 5 -30 8 -14 8 -20 0 -20 -6 0 -4 -7 4 -16 19 -18 21 -28 4
-18 -7 4 -2 -7 11 -25 13 -18 20 -35 17 -38 -3 -3 3 -12 14 -20 11 -8 20 -18
20 -23 0 -12 48 -60 61 -60 5 0 14 -10 19 -22 5 -14 9 -17 10 -8 0 9 3 11 8 5
11 -15 50 -35 67 -35 10 0 13 -5 9 -12 -5 -9 -2 -9 9 1 10 7 17 9 17 3 0 -6 8
-9 18 -7 9 1 26 -5 36 -14 11 -9 16 -10 12 -3 -11 18 5 14 20 -5 13 -17 14
-17 8 1 -6 16 -5 17 16 6 18 -10 21 -9 15 1 -6 8 -4 11 7 6 9 -3 21 0 28 6 10
9 14 9 17 0 3 -10 8 -9 20 2 8 8 25 15 38 15 13 0 25 5 27 10 2 6 13 12 25 13
12 0 21 6 20 12 -1 5 4 9 11 7 6 -1 12 3 12 9 0 5 5 7 10 4 6 -4 10 -3 9 2 -3
20 2 25 15 14 12 -10 13 -8 9 10 -5 18 -3 21 11 16 10 -4 15 -3 11 3 -9 14 14
52 27 44 7 -4 8 -3 4 4 -4 6 -2 21 5 33 9 17 13 19 20 8 7 -9 8 -5 3 13 -3 15
-1 35 6 45 7 11 10 12 7 3 -2 -8 3 -21 10 -28 11 -11 11 -17 2 -29 -7 -8 -8
-13 -3 -11 5 2 11 -1 14 -7 2 -5 12 -19 22 -30 9 -11 18 -23 18 -27 1 -13 45
-54 53 -50 5 2 11 -5 14 -16 3 -11 10 -19 17 -16 6 2 21 -4 31 -14 11 -10 23
-18 28 -19 41 -3 127 -28 127 -37 0 -7 3 -7 8 -1 10 14 42 15 42 1 0 -8 2 -8
8 0 6 10 50 21 100 26 6 1 12 5 12 9 0 4 9 6 20 4 11 -2 18 0 15 5 -3 5 3 14
14 19 26 14 34 14 25 -1 -4 -7 -3 -8 5 -4 6 4 9 11 6 16 -7 12 30 32 40 22 5
-4 5 -2 2 4 -8 13 37 66 48 56 5 -4 5 -1 1 5 -8 14 17 57 26 47 3 -3 6 1 5 8
-1 36 4 49 16 42 9 -6 9 -5 0 8 -7 8 -10 18 -6 22 19 18 21 143 3 176 -9 17
-9 24 0 30 8 5 7 9 -4 13 -21 8 -20 41 1 58 15 12 16 12 8 -1 -4 -8 4 -2 18
13 15 15 32 25 37 22 6 -4 9 -3 8 2 -2 10 58 104 63 99 2 -3 5 8 5 22 2 36 9
70 16 77 8 8 -1 79 -17 131 -7 25 -11 43 -8 40 4 -3 13 3 21 15 8 12 20 18 29
14 12 -4 13 -2 5 7 -12 15 20 62 33 50 5 -4 5 -2 2 5 -10 16 3 44 17 36 8 -4
8 -3 0 6 -8 8 -7 25 1 59 7 26 10 56 8 67 -19 81 -10 146 18 129 5 -3 9 2 9
10 0 8 8 20 17 25 10 6 14 11 9 11 -5 0 -1 9 8 19 23 25 47 114 46 176 0 99
-52 201 -129 253 -93 63 -113 64 -756 64 -481 -1 -588 -3 -628 -15 -26 -9 -53
-14 -60 -13 -7 1 -38 26 -68 57 -51 51 -67 59 -159 87 -8 2 -84 6 -169 8 -85
2 -159 5 -165 7 -6 2 -29 -1 -51 -8z m1119 -1531 c-6 -3 -9 -17 -7 -32 3 -23
2 -24 -6 -7 -15 31 -13 45 7 44 9 0 12 -3 6 -5z"/>
</g>
</svg>
