<?xml version="1.0" standalone="no"?>
<!DOCTYPE svg PUBLIC "-//W3C//DTD SVG 20010904//EN"
 "http://www.w3.org/TR/2001/REC-SVG-20010904/DTD/svg10.dtd">
<svg version="1.0" xmlns="http://www.w3.org/2000/svg"
 width="256.000000pt" height="256.000000pt" viewBox="0 0 256.000000 256.000000"
 preserveAspectRatio="xMidYMid meet">
<metadata>
Created by potrace 1.14, written by Peter Selinger 2001-2017
</metadata>
<g transform="translate(0.000000,256.000000) scale(0.100000,-0.100000)"
fill="#000000" stroke="none">
<path d="M684 2280 c-87 -22 -185 -71 -281 -139 l-73 -52 0 -784 0 -785 67 47
c286 196 564 202 806 16 l57 -44 0 779 0 779 -45 42 c-153 141 -340 191 -531
141z"/>
<path d="M1626 2285 c-81 -22 -173 -75 -237 -134 l-59 -56 -3 -778 c-1 -427
-1 -777 0 -777 1 0 31 22 66 49 239 180 516 172 800 -22 l67 -47 0 783 0 784
-62 47 c-81 60 -225 131 -308 150 -79 19 -197 19 -264 1z"/>
<path d="M180 1080 l0 -820 489 0 490 0 37 -45 c36 -45 37 -45 100 -45 57 0
65 3 81 26 48 70 0 64 543 64 l490 0 0 820 0 820 -45 0 -45 0 -2 -747 c-3
-693 -4 -748 -20 -751 -9 -2 -50 22 -90 53 -88 68 -230 139 -318 159 -189 45
-364 -5 -515 -146 -40 -37 -77 -68 -82 -68 -5 0 -29 21 -53 46 -58 59 -160
126 -235 154 -183 68 -413 15 -624 -145 -40 -31 -81 -55 -90 -53 -15 3 -16 71
-19 751 l-2 747 -45 0 -45 0 0 -820z"/>
</g>
</svg>
